# xmcd
#
# Track frame offsets: 
#        150
#        8800
#        25800
#        42742
#        60023
#        79045
#        94377
#        111320
#        126460
#        140472
#        146988
#        160384
#        180803
#        194443
#        196690
#
# Disc length: 2810 seconds
#
# Revision: 0
# Processed by: cddbd v1.5.2PL0 Copyright (c) Steve Scherf et al.
# Submitted via: ExactAudioCopy v0.99pb5
#
DISCID=ce0af80f
DTITLE=Terri Hendrix - Cry Till You Laugh
DYEAR=2010
DGENRE=Country
TTITLE0=Wail Theory
TTITLE1=Slow Down
TTITLE2=Automatic
TTITLE3=Hand Me Down Blues
TTITLE4=Roll On
TTITLE5=Einstein's Brain
TTITLE6=You Belong In New Orleans
TTITLE7=Sometimes
TTITLE8=The Berlin Wall
TTITLE9=Hand Me Down Blues Refrain
TTITLE10=1000 Times
TTITLE11=Hula Mary
TTITLE12=Come Tomorrow
TTITLE13=Whatachoice
TTITLE14=Take Me Places
EXTD=
EXTT0=
EXTT1=
EXTT2=
EXTT3=
EXTT4=
EXTT5=
EXTT6=
EXTT7=
EXTT8=
EXTT9=
EXTT10=
EXTT11=
EXTT12=
EXTT13=
EXTT14=
PLAYORDER=
